<?xml version="1.0" encoding="UTF-8" standalone="no"?>
<!DOCTYPE svg PUBLIC "-//W3C//DTD SVG 1.1//EN"
 "http://www.w3.org/Graphics/SVG/1.1/DTD/svg11.dtd">
<!-- Generated by graphviz version 2.38.0 (20140413.2041)
 -->
<!-- Title: G Pages: 1 -->
<svg width="884pt" height="260pt"
 viewBox="0.00 0.00 883.86 260.00" xmlns="http://www.w3.org/2000/svg" xmlns:xlink="http://www.w3.org/1999/xlink">
<g id="graph0" class="graph" transform="scale(1 1) rotate(0) translate(4 256)">
<title>G</title>
<polygon fill="white" stroke="none" points="-4,4 -4,-256 879.863,-256 879.863,4 -4,4"/>
<!-- domoWebModule -->
<g id="node1" class="node"><title>domoWebModule</title>
<ellipse fill="#26d946" stroke="black" cx="241.364" cy="-162" rx="57.8786" ry="18"/>
<text text-anchor="middle" x="241.364" y="-159.5" font-family="Helvetica,sans-Serif" font-size="10.00" fill="#000000">domoWebModule</text>
</g>
<!-- domoWebDataCache -->
<g id="node2" class="node"><title>domoWebDataCache</title>
<ellipse fill="#4cb397" stroke="black" cx="89.3644" cy="-90" rx="68.7474" ry="18"/>
<text text-anchor="middle" x="89.3644" y="-87.5" font-family="Helvetica,sans-Serif" font-size="10.00" fill="#000000">domoWebDataCache</text>
</g>
<!-- domoWebModule&#45;&gt;domoWebDataCache -->
<g id="edge1" class="edge"><title>domoWebModule&#45;&gt;domoWebDataCache</title>
<path fill="none" stroke="black" d="M210.238,-146.666C187.365,-136.132 156.042,-121.707 131.014,-110.181"/>
<polygon fill="black" stroke="black" points="132.308,-106.923 121.76,-105.919 129.379,-113.281 132.308,-106.923"/>
</g>
<!-- webui -->
<g id="node4" class="node"><title>webui</title>
<ellipse fill="#6846a4" stroke="black" cx="357.364" cy="-90" rx="27" ry="18"/>
<text text-anchor="middle" x="357.364" y="-87.5" font-family="Helvetica,sans-Serif" font-size="10.00" fill="#ffffff">webui</text>
</g>
<!-- domoWebModule&#45;&gt;webui -->
<g id="edge3" class="edge"><title>domoWebModule&#45;&gt;webui</title>
<path fill="none" stroke="black" d="M266.821,-145.638C285.276,-134.502 310.231,-119.443 329.268,-107.955"/>
<polygon fill="black" stroke="black" points="331.331,-110.798 338.084,-102.635 327.714,-104.805 331.331,-110.798"/>
</g>
<!-- domoweb -->
<g id="node7" class="node"><title>domoweb</title>
<ellipse fill="#6c3172" stroke="black" cx="412.364" cy="-18" rx="37.1717" ry="18"/>
<text text-anchor="middle" x="412.364" y="-15.5" font-family="Helvetica,sans-Serif" font-size="10.00" fill="#ffffff">domoweb</text>
</g>
<!-- domoWebModule&#45;&gt;domoweb -->
<g id="edge9" class="edge"><title>domoWebModule&#45;&gt;domoweb</title>
<path fill="none" stroke="black" d="M185.036,-157.926C101.358,-151.357 -40.6351,-131.324 11.3644,-72 34.416,-45.7013 264.391,-28.2395 365.307,-21.7856"/>
<polygon fill="black" stroke="black" points="365.762,-25.264 375.522,-21.1418 365.321,-18.2778 365.762,-25.264"/>
</g>
<!-- domoWebModuleMgt -->
<g id="node9" class="node"><title>domoWebModuleMgt</title>
<ellipse fill="#68a446" stroke="black" cx="244.364" cy="-90" rx="68.0705" ry="18"/>
<text text-anchor="middle" x="244.364" y="-87.5" font-family="Helvetica,sans-Serif" font-size="10.00" fill="#000000">domoWebModuleMgt</text>
</g>
<!-- domoWebModule&#45;&gt;domoWebModuleMgt -->
<g id="edge16" class="edge"><title>domoWebModule&#45;&gt;domoWebModuleMgt</title>
<path fill="none" stroke="black" d="M242.106,-143.697C242.437,-135.983 242.834,-126.712 243.202,-118.112"/>
<polygon fill="black" stroke="black" points="246.7,-118.245 243.631,-108.104 239.706,-117.945 246.7,-118.245"/>
</g>
<!-- domoWebDataCache&#45;&gt;domoweb -->
<g id="edge10" class="edge"><title>domoWebDataCache&#45;&gt;domoweb</title>
<path fill="none" stroke="black" d="M140.549,-77.8324C149.487,-75.8858 158.696,-73.8822 167.364,-72 238.037,-56.6544 320.195,-38.8984 369.148,-28.3278"/>
<polygon fill="black" stroke="black" points="370.037,-31.7164 379.073,-26.1846 368.56,-24.8741 370.037,-31.7164"/>
</g>
<!-- gpioDevice -->
<g id="node3" class="node"><title>gpioDevice</title>
<ellipse fill="#c1ce3b" stroke="black" cx="357.364" cy="-162" rx="40.7358" ry="18"/>
<text text-anchor="middle" x="357.364" y="-159.5" font-family="Helvetica,sans-Serif" font-size="10.00" fill="#000000">gpioDevice</text>
</g>
<!-- gpioDevice&#45;&gt;webui -->
<g id="edge2" class="edge"><title>gpioDevice&#45;&gt;webui</title>
<path fill="none" stroke="black" d="M357.364,-143.697C357.364,-135.983 357.364,-126.712 357.364,-118.112"/>
<polygon fill="black" stroke="black" points="360.865,-118.104 357.364,-108.104 353.865,-118.104 360.865,-118.104"/>
</g>
<!-- gpioDevice&#45;&gt;domoweb -->
<g id="edge7" class="edge"><title>gpioDevice&#45;&gt;domoweb</title>
<path fill="none" stroke="black" d="M370.816,-144.786C378.492,-134.759 387.687,-121.299 393.364,-108 401.829,-88.1723 406.668,-64.1959 409.342,-46.1267"/>
<polygon fill="black" stroke="black" points="412.841,-46.3663 410.708,-35.9884 405.904,-45.4313 412.841,-46.3663"/>
</g>
<!-- gpioDevice&#45;&gt;domoWebModuleMgt -->
<g id="edge17" class="edge"><title>gpioDevice&#45;&gt;domoWebModuleMgt</title>
<path fill="none" stroke="black" d="M334.769,-147.003C318.717,-137.059 296.873,-123.527 278.677,-112.256"/>
<polygon fill="black" stroke="black" points="280.424,-109.221 270.08,-106.93 276.738,-115.171 280.424,-109.221"/>
</g>
<!-- webui&#45;&gt;domoweb -->
<g id="edge14" class="edge"><title>webui&#45;&gt;domoweb</title>
<path fill="none" stroke="black" d="M369.299,-73.811C376.308,-64.8894 385.33,-53.4071 393.304,-43.2588"/>
<polygon fill="black" stroke="black" points="396.262,-45.1592 399.688,-35.1336 390.758,-40.8344 396.262,-45.1592"/>
</g>
<!-- oneWireDevice -->
<g id="node5" class="node"><title>oneWireDevice</title>
<ellipse fill="#ce3b3b" stroke="black" cx="467.364" cy="-162" rx="51.4282" ry="18"/>
<text text-anchor="middle" x="467.364" y="-159.5" font-family="Helvetica,sans-Serif" font-size="10.00" fill="#ffffff">oneWireDevice</text>
</g>
<!-- oneWireDevice&#45;&gt;webui -->
<g id="edge4" class="edge"><title>oneWireDevice&#45;&gt;webui</title>
<path fill="none" stroke="black" d="M443.767,-145.983C426.564,-135.036 403.198,-120.167 385.102,-108.651"/>
<polygon fill="black" stroke="black" points="386.496,-105.39 376.18,-102.974 382.738,-111.295 386.496,-105.39"/>
</g>
<!-- oneWireDevice&#45;&gt;domoweb -->
<g id="edge11" class="edge"><title>oneWireDevice&#45;&gt;domoweb</title>
<path fill="none" stroke="black" d="M515.68,-155.998C584.773,-146.94 699.107,-123.738 657.364,-72 632.968,-41.7613 523.411,-27.9208 459.361,-22.3143"/>
<polygon fill="black" stroke="black" points="459.368,-18.8026 449.11,-21.4531 458.782,-25.778 459.368,-18.8026"/>
</g>
<!-- oneWireDevice&#45;&gt;domoWebModuleMgt -->
<g id="edge15" class="edge"><title>oneWireDevice&#45;&gt;domoWebModuleMgt</title>
<path fill="none" stroke="black" d="M430.541,-149.441C393.892,-137.937 337.324,-120.18 296.157,-107.258"/>
<polygon fill="black" stroke="black" points="297.16,-103.904 286.571,-104.249 295.064,-110.583 297.16,-103.904"/>
</g>
<!-- domoTask -->
<g id="node6" class="node"><title>domoTask</title>
<ellipse fill="#539bb6" stroke="black" cx="478.364" cy="-90" rx="38.0276" ry="18"/>
<text text-anchor="middle" x="478.364" y="-87.5" font-family="Helvetica,sans-Serif" font-size="10.00" fill="#000000">domoTask</text>
</g>
<!-- domoTask&#45;&gt;domoweb -->
<g id="edge5" class="edge"><title>domoTask&#45;&gt;domoweb</title>
<path fill="none" stroke="black" d="M463.388,-73.1159C454.781,-63.987 443.814,-52.3552 434.255,-42.2168"/>
<polygon fill="black" stroke="black" points="436.688,-39.6961 427.282,-34.8212 431.595,-44.4982 436.688,-39.6961"/>
</g>
<!-- domoWebLogger -->
<g id="node8" class="node"><title>domoWebLogger</title>
<ellipse fill="#b68953" stroke="black" cx="591.364" cy="-90" rx="57.2008" ry="18"/>
<text text-anchor="middle" x="591.364" y="-87.5" font-family="Helvetica,sans-Serif" font-size="10.00" fill="#000000">domoWebLogger</text>
</g>
<!-- domoWebLogger&#45;&gt;domoweb -->
<g id="edge6" class="edge"><title>domoWebLogger&#45;&gt;domoweb</title>
<path fill="none" stroke="black" d="M556.851,-75.5033C526.101,-63.4779 481.21,-45.923 449.646,-33.5794"/>
<polygon fill="black" stroke="black" points="450.897,-30.3104 440.309,-29.9279 448.347,-36.8296 450.897,-30.3104"/>
</g>
<!-- domoWebModuleMgt&#45;&gt;domoweb -->
<g id="edge8" class="edge"><title>domoWebModuleMgt&#45;&gt;domoweb</title>
<path fill="none" stroke="black" d="M279.174,-74.496C307.41,-62.7309 347.096,-46.1953 375.794,-34.2376"/>
<polygon fill="black" stroke="black" points="377.188,-37.4484 385.073,-30.3714 374.496,-30.9868 377.188,-37.4484"/>
</g>
<!-- domoWebConfigParser -->
<g id="node10" class="node"><title>domoWebConfigParser</title>
<ellipse fill="#5365b6" stroke="black" cx="777.364" cy="-90" rx="72.9884" ry="18"/>
<text text-anchor="middle" x="777.364" y="-87.5" font-family="Helvetica,sans-Serif" font-size="10.00" fill="#ffffff">domoWebConfigParser</text>
</g>
<!-- domoWebConfigParser&#45;&gt;domoweb -->
<g id="edge12" class="edge"><title>domoWebConfigParser&#45;&gt;domoweb</title>
<path fill="none" stroke="black" d="M722.143,-78.1702C711.595,-76.1126 700.64,-73.9834 690.364,-72 607.652,-56.0346 511.037,-37.6818 456.24,-27.3004"/>
<polygon fill="black" stroke="black" points="456.658,-23.8174 446.181,-25.3953 455.355,-30.6952 456.658,-23.8174"/>
</g>
<!-- domoWebUser -->
<g id="node11" class="node"><title>domoWebUser</title>
<ellipse fill="#c2478a" stroke="black" cx="559.364" cy="-234" rx="50.7503" ry="18"/>
<text text-anchor="middle" x="559.364" y="-231.5" font-family="Helvetica,sans-Serif" font-size="10.00" fill="#ffffff">domoWebUser</text>
</g>
<!-- domoWebUser&#45;&gt;domoWebModule -->
<g id="edge18" class="edge"><title>domoWebUser&#45;&gt;domoWebModule</title>
<path fill="none" stroke="black" d="M515.981,-224.49C465.662,-214.478 380.282,-197.05 307.364,-180 302.968,-178.972 298.416,-177.873 293.853,-176.747"/>
<polygon fill="black" stroke="black" points="294.45,-173.288 283.9,-174.255 292.75,-180.079 294.45,-173.288"/>
</g>
<!-- domoWebUser&#45;&gt;domoweb -->
<g id="edge13" class="edge"><title>domoWebUser&#45;&gt;domoweb</title>
<path fill="none" stroke="black" d="M605.502,-226.261C707.758,-209.537 938.374,-160.93 859.364,-72 833.092,-42.4287 568.773,-26.4807 459.38,-21.1041"/>
<polygon fill="black" stroke="black" points="459.448,-17.6034 449.29,-20.6167 459.11,-24.5952 459.448,-17.6034"/>
</g>
</g>
</svg>
